PathFileType	4	(X/Y/Z)	SUBJ82_4_walk_RCNL2025.trc
DataRate	CameraRate	NumFrames	NumMarkers	Units	OrigDataRate	OrigDataStartFrame	OrigNumFrames
100	100	4	25	mm	100	1	242
Frame#	Time	R_Shoulder			L_Shoulder			C7			J_Notch			R_Elbow			L_Elbow			R_Wrist			L_Wrist			R_Asis			L_Asis			Sacral			Thoracic			Sternum			R_Thigh_Lateral			R_Knee_Lateral			R_Shank_Lateral			R_Ankle_Lateral			R_Heel			R_Toe			L_Thigh_Lateral			L_Knee_Lateral			L_Shank_Lateral			L_Ankle_Lateral			L_Heel			L_Toe		
		X1	Y1	Z1	X2	Y2	Z2	X3	Y3	Z3	X4	Y4	Z4	X5	Y5	Z5	X6	Y6	Z6	X7	Y7	Z7	X8	Y8	Z8	X9	Y9	Z9	X10	Y10	Z10	X11	Y11	Z11	X12	Y12	Z12	X13	Y13	Z13	X14	Y14	Z14	X15	Y15	Z15	X16	Y16	Z16	X17	Y17	Z17	X18	Y18	Z18	X19	Y19	Z19	X20	Y20	Z20	X21	Y21	Z21	X22	Y22	Z22	X23	Y23	Z23	X24	Y24	Z24	X25	Y25	Z25
1	0.00000000	-1265.008667	1433.919556	-57.163170	-1238.457031	1446.535767	-465.874969	-1308.374268	1530.448120	-255.269211	-1179.394409	1417.994995	-258.575287	-1303.443115	1092.671753	20.148800	-1349.775757	1112.714355	-537.531860	-1166.960632	871.032532	-4.984226	-1326.145630	853.185242	-537.853149	-1215.066162	1002.527954	-114.270813	-1191.723755	1012.068970	-380.749146	-1382.824707	1024.641479	-272.638794	-1398.509521	1295.218628	-271.029938	-1169.366821	1239.892944	-259.733582	-1288.634399	569.617249	-90.714508	-1296.897583	484.446350	-141.938232	-1329.243652	258.437805	-89.130234	-1351.824707	78.880363	-186.698700	-1398.158447	47.796570	-228.433868	-1217.106812	52.357773	-209.863754	-1148.226440	585.264648	-451.265045	-1133.962158	518.787537	-407.380951	-1210.746338	309.514252	-440.637024	-1284.636841	135.313538	-371.537445	-1320.977539	124.982803	-311.656555	-1154.021973	67.928047	-364.315613
2	0.01000000	-1250.472778	1433.415283	-57.221134	-1225.714355	1445.163574	-466.687347	-1294.132690	1529.625244	-255.400146	-1168.745605	1417.487183	-257.857330	-1287.013184	1092.286499	21.601902	-1340.370361	1112.174316	-536.258301	-1146.507690	873.001343	-4.801568	-1292.731079	854.434692	-518.921463	-1201.285645	1001.290405	-114.091644	-1177.653931	1011.365295	-380.699371	-1368.735840	1023.633911	-272.794006	-1384.677002	1294.301758	-270.733582	-1152.268677	1239.443237	-258.400909	-1281.654785	569.183472	-90.964676	-1291.735962	484.081329	-142.278717	-1326.862915	258.420532	-89.198814	-1351.341064	78.975906	-187.052063	-1397.966064	48.034115	-228.650620	-1216.899902	52.227093	-210.105392	-1128.426880	586.275879	-451.232605	-1114.604614	518.339355	-406.658966	-1177.392090	302.592529	-439.875244	-1239.064209	124.503555	-370.605011	-1273.849243	111.269203	-310.013367	-1104.728638	67.065865	-364.463318
3	0.02000000	-1235.977417	1432.487305	-57.366318	-1212.996704	1443.468018	-467.459259	-1279.919434	1528.461548	-255.563187	-1155.986816	1416.645142	-257.194275	-1270.697266	1091.548828	22.966562	-1330.885132	1111.326294	-534.894653	-1126.289551	874.582336	-4.657403	-1288.803589	853.359772	-518.467270	-1187.500854	999.822266	-114.014404	-1163.588013	1010.269653	-380.820496	-1354.609619	1022.232178	-272.934845	-1370.916382	1293.065796	-270.548676	-1136.040161	1238.477295	-257.507355	-1274.486328	568.665771	-91.139999	-1286.370483	483.649689	-142.532257	-1324.442017	258.407715	-89.190727	-1350.858521	79.092323	-187.332458	-1397.795410	48.309418	-228.809067	-1216.644653	52.068245	-210.342819	-1110.177856	586.480652	-451.010529	-1096.592773	517.154724	-405.971497	-1144.686279	295.930847	-439.196716	-1192.791016	114.443161	-369.899719	-1225.765747	98.378532	-308.583862	-1055.636230	67.458328	-364.955475
4	0.03000000	-1221.500122	1431.177979	-57.606884	-1200.242798	1441.471680	-468.172791	-1265.715576	1526.972412	-255.775177	-1142.052856	1415.367310	-256.783173	-1254.470825	1090.500854	24.219172	-1321.321533	1110.211304	-533.475952	-1106.361633	875.782074	-4.580705	-1284.229492	852.026611	-518.012924	-1173.694824	998.135010	-114.026199	-1149.474487	1008.797180	-381.064880	-1340.411743	1020.472412	-273.091583	-1357.195801	1291.522705	-270.482208	-1120.638672	1237.030518	-257.049500	-1267.135132	568.054382	-91.236404	-1280.775757	483.146423	-142.706467	-1321.908203	258.405945	-89.113838	-1350.376831	79.228470	-187.540268	-1397.644409	48.625454	-228.904449	-1216.375977	51.904877	-210.549011	-1093.629761	585.763794	-450.549500	-1079.928833	515.214905	-405.284973	-1112.848145	289.743286	-438.651825	-1146.282227	105.543884	-369.588013	-1177.242310	86.752777	-307.545563	-1006.923645	69.261757	-365.738403
